<svg xmlns="http://www.w3.org/2000/svg" viewBox="0 0 1119.08 629.5"><defs><style>.cls-1,.cls-2,.cls-3{fill:#fff;}.cls-2{font-size:43.7px;}.cls-2,.cls-3{font-family:Nexa-Bold, Nexa-Bold;}.cls-3{font-size:38.31px;}</style></defs><title>Asset 5</title><g id="Layer_2" data-name="Layer 2"><g id="Layer_1-2" data-name="Layer 1"><path class="cls-1" d="M114.09,232.36q-6-8.65-17.17-13.57a62.58,62.58,0,0,0-24.38-5.16q-17.29,0-28.1,6.84T33.63,239.08q0,11,10.45,16.09t30.38,7.93a216.46,216.46,0,0,1,25.46,5,96.49,96.49,0,0,1,20.9,8.53A38.8,38.8,0,0,1,136.55,292q5.4,9.73,5.4,23.18,0,18-10.45,30A56.51,56.51,0,0,1,106,362.18a108,108,0,0,1-33.75,4.92q-51.64,0-72.3-38.19l20.18-13.45q16.33,27.62,52.36,27.62a79.24,79.24,0,0,0,20.18-2.4,34.13,34.13,0,0,0,15.73-9,22.33,22.33,0,0,0,6.61-16.45q0-12.73-11.41-18.86T72.06,287.6a197.77,197.77,0,0,1-19.82-3.36,123.9,123.9,0,0,1-17.41-5.52,49,49,0,0,1-14.77-8.65A39.5,39.5,0,0,1,10.69,257,43.29,43.29,0,0,1,7,238.6,41.77,41.77,0,0,1,28.1,201.37a80.32,80.32,0,0,1,20.66-8.29,94.74,94.74,0,0,1,23.06-2.76q44.92,0,62.69,28.34Z"/><path class="cls-1" d="M161.17,363.27V195.13h26.66V363.27Z"/><path class="cls-1" d="M365.33,234.52,308.16,314H302.4L246,234.52v129H219V195.37h31.23l55.49,78.78L361,195.37h31.22V363.51h-26.9Z"/><path class="cls-1" d="M712.88,314.75V195.13h26.9V363.27H719.36L624,244.61V363.27H596.86V195.13h20.66Z"/><path class="cls-1" d="M771,363.27V195.13h26.66V363.27Z"/><path class="cls-1" d="M929.28,232.36q-6-8.65-17.17-13.57a62.57,62.57,0,0,0-24.38-5.16q-17.29,0-28.1,6.84t-10.81,18.62q0,11,10.45,16.09t30.39,7.93a216.44,216.44,0,0,1,25.46,5,96.48,96.48,0,0,1,20.9,8.53A38.81,38.81,0,0,1,951.74,292q5.4,9.73,5.4,23.18,0,18-10.45,30a56.51,56.51,0,0,1-25.46,16.93,108,108,0,0,1-33.75,4.92q-51.64,0-72.3-38.19l20.18-13.45q16.33,27.62,52.36,27.62a79.24,79.24,0,0,0,20.18-2.4,34.12,34.12,0,0,0,15.73-9,22.33,22.33,0,0,0,6.61-16.45q0-12.73-11.41-18.86t-31.59-8.77a197.71,197.71,0,0,1-19.82-3.36A123.9,123.9,0,0,1,850,278.72a49,49,0,0,1-14.77-8.65A39.49,39.49,0,0,1,825.88,257a43.29,43.29,0,0,1-3.72-18.38,41.77,41.77,0,0,1,21.14-37.23,80.33,80.33,0,0,1,20.66-8.29A94.75,94.75,0,0,1,887,190.32q44.92,0,62.69,28.34Z"/><path class="cls-1" d="M509.2,195.13H479.89L404.47,363.27h31.22l10.48-25.41a74.83,74.83,0,0,1,4.82-9.78c9-9.15,24.79-10.46,51.08-10.46h-43.4V294.9c0-5.64,4.92-10.2,11-10.2H520c6.07,0,11,4.57,11,10.2v22.8c5.64,5.16,9.56,11.88,12.76,19.61l10.74,26h30.08Zm4.4,57H501.06v12.55a3,3,0,0,1-2.95,2.95h-7.88a3,3,0,0,1-2.95-2.95V252.08H474.73a3,3,0,0,1-2.95-2.95v-7.88a3,3,0,0,1,2.95-2.95h12.55V225.76a3,3,0,0,1,2.95-2.95h7.88a3,3,0,0,1,2.95,2.95V238.3H513.6a3,3,0,0,1,2.95,2.95v7.88A3,3,0,0,1,513.6,252.08Z"/><text class="cls-2" transform="translate(9.42 436.23)">SISTEM INFORMASI MANAJEMEN </text><path class="cls-1" d="M865.16,602.52c-101.95,0-191.51-53-242.63-133h-71c54,95.49,156.54,160,274.1,160a313.78,313.78,0,0,0,225.12-94.8A286.6,286.6,0,0,1,865.16,602.52Z"/><path class="cls-1" d="M621.46,161.68C672.39,80.76,762.49,27,865.16,27A286.6,286.6,0,0,1,1050.71,94.8,313.78,313.78,0,0,0,825.59,0C707.33,0,604.32,65.24,550.54,161.68Z"/><path class="cls-1" d="M865.16,60.83A253.44,253.44,0,0,0,666.44,156.7,225,225,0,0,1,827.55,89c124.65,0,225.7,101.05,225.7,225.7s-101.05,225.7-225.7,225.7A225,225,0,0,1,666.44,472.8a253.44,253.44,0,0,0,198.73,95.87c140.23,0,253.92-113.68,253.92-253.92S1005.4,60.83,865.16,60.83Z"/><text class="cls-3" transform="translate(8.51 493.74)">AKOMODASI PASIEN</text></g></g></svg>