<svg xmlns="http://www.w3.org/2000/svg" viewBox="0 0 1302.61 240.59"><defs><style>.cls-1{fill:#fff;}</style></defs><title>Asset 8</title><g id="Layer_2" data-name="Layer 2"><g id="Layer_1-2" data-name="Layer 1"><path class="cls-1" d="M155.27,57.21Q147.1,45.44,131.9,38.74a85.16,85.16,0,0,0-33.18-7q-23.54,0-38.25,9.32T45.77,66.36q0,15,14.22,21.9T101.34,99A294.58,294.58,0,0,1,136,105.91a131.31,131.31,0,0,1,28.44,11.61,52.8,52.8,0,0,1,21.41,20.92q7.36,13.24,7.36,31.55,0,24.51-14.22,40.86a76.91,76.91,0,0,1-34.65,23q-20.43,6.7-45.93,6.7-70.28,0-98.39-52l27.46-18.31Q49.69,207.9,98.72,207.9a107.85,107.85,0,0,0,27.46-3.27,46.45,46.45,0,0,0,21.41-12.26q9-9,9-22.39,0-17.33-15.53-25.66t-43-11.93a269.15,269.15,0,0,1-27-4.58,168.62,168.62,0,0,1-23.7-7.52Q35,115.39,27.3,108.53A53.76,53.76,0,0,1,14.55,90.71a58.92,58.92,0,0,1-5.07-25q0-17,7.85-30.07A57.43,57.43,0,0,1,38.25,15,109.31,109.31,0,0,1,66.36,3.76,128.93,128.93,0,0,1,97.74,0q61.13,0,85.32,38.57Z"/><path class="cls-1" d="M219.33,235.36V6.54h36.28V235.36Z"/><path class="cls-1" d="M497.19,60.15l-77.8,108.2h-7.85L334.72,60.15V235.69H298.11V6.87h42.5l75.51,107.22L491.3,6.87H533.8V235.69H497.19Z"/><path class="cls-1" d="M970.17,169.33V6.54h36.61V235.36H979L849.22,73.88V235.36H812.29V6.54H840.4Z"/><path class="cls-1" d="M1049.27,235.36V6.54h36.29V235.36Z"/><path class="cls-1" d="M1264.69,57.21q-8.17-11.77-23.37-18.47a85.16,85.16,0,0,0-33.18-7q-23.54,0-38.25,9.32t-14.71,25.33q0,15,14.22,21.9T1210.75,99a294.57,294.57,0,0,1,34.65,6.86,131.3,131.3,0,0,1,28.44,11.61,52.82,52.82,0,0,1,21.41,20.92q7.36,13.24,7.36,31.55,0,24.51-14.22,40.86a76.91,76.91,0,0,1-34.65,23q-20.43,6.7-45.93,6.7-70.28,0-98.39-52l27.46-18.31q22.23,37.59,71.26,37.59a107.84,107.84,0,0,0,27.46-3.27A46.44,46.44,0,0,0,1257,192.38q9-9,9-22.39,0-17.33-15.53-25.66t-43-11.93a269.06,269.06,0,0,1-27-4.58,168.62,168.62,0,0,1-23.7-7.52q-12.42-4.9-20.1-11.77A53.75,53.75,0,0,1,1124,90.71a58.92,58.92,0,0,1-5.07-25q0-17,7.85-30.07A57.44,57.44,0,0,1,1147.66,15a109.32,109.32,0,0,1,28.11-11.28A128.94,128.94,0,0,1,1207.15,0q61.13,0,85.32,38.57Z"/><path class="cls-1" d="M693,6.54H653.1L550.46,235.36h42.48l14.26-34.58a101.83,101.83,0,0,1,6.56-13.31C626,175,647.49,173.23,683.28,173.23H624.22V142.32c0-7.67,6.69-13.89,15-13.89h68.58c8.26,0,15,6.22,15,13.89v31c7.67,7,13,16.17,17.37,26.69l14.62,35.33h40.93ZM699,84H681.9v17.08a4,4,0,0,1-4,4H667.17a4,4,0,0,1-4-4V84H646.08a4,4,0,0,1-4-4V69.31a4,4,0,0,1,4-4h17.08V48.22a4,4,0,0,1,4-4h10.72a4,4,0,0,1,4,4V65.3H699a4,4,0,0,1,4,4V80A4,4,0,0,1,699,84Z"/></g></g></svg>