<svg xmlns="http://www.w3.org/2000/svg" viewBox="0 0 1119.08 629.5"><defs><style>.cls-1{fill:#ff9d00;}.cls-2{fill:#029937;}.cls-3{fill:#7e9596;}</style></defs><title>Asset 7</title><g id="Layer_2" data-name="Layer 2"><g id="Layer_1-2" data-name="Layer 1"><path class="cls-1" d="M114.09,232.36q-6-8.65-17.17-13.57a62.58,62.58,0,0,0-24.38-5.16q-17.29,0-28.1,6.84T33.63,239.08q0,11,10.45,16.09t30.38,7.93a216.46,216.46,0,0,1,25.46,5,96.49,96.49,0,0,1,20.9,8.53A38.8,38.8,0,0,1,136.55,292q5.4,9.73,5.4,23.18,0,18-10.45,30A56.51,56.51,0,0,1,106,362.18a108,108,0,0,1-33.75,4.92q-51.64,0-72.3-38.19l20.18-13.45q16.33,27.62,52.36,27.62a79.24,79.24,0,0,0,20.18-2.4,34.13,34.13,0,0,0,15.73-9,22.33,22.33,0,0,0,6.61-16.45q0-12.73-11.41-18.86T72.06,287.6a197.77,197.77,0,0,1-19.82-3.36,123.9,123.9,0,0,1-17.41-5.52,49,49,0,0,1-14.77-8.65A39.5,39.5,0,0,1,10.69,257,43.29,43.29,0,0,1,7,238.6,41.77,41.77,0,0,1,28.1,201.37a80.32,80.32,0,0,1,20.66-8.29,94.74,94.74,0,0,1,23.06-2.76q44.92,0,62.69,28.34Z"/><path class="cls-1" d="M161.17,363.27V195.13h26.66V363.27Z"/><path class="cls-2" d="M365.33,234.52,308.16,314H302.4L246,234.52v129H219V195.37h31.23l55.49,78.78L361,195.37h31.22V363.51h-26.9Z"/><path class="cls-2" d="M712.88,314.75V195.13h26.9V363.27H719.36L624,244.61V363.27H596.86V195.13h20.66Z"/><path class="cls-2" d="M771,363.27V195.13h26.66V363.27Z"/><path class="cls-2" d="M929.28,232.36q-6-8.65-17.17-13.57a62.57,62.57,0,0,0-24.38-5.16q-17.29,0-28.1,6.84t-10.81,18.62q0,11,10.45,16.09t30.39,7.93a216.44,216.44,0,0,1,25.46,5,96.48,96.48,0,0,1,20.9,8.53A38.81,38.81,0,0,1,951.74,292q5.4,9.73,5.4,23.18,0,18-10.45,30a56.51,56.51,0,0,1-25.46,16.93,108,108,0,0,1-33.75,4.92q-51.64,0-72.3-38.19l20.18-13.45q16.33,27.62,52.36,27.62a79.24,79.24,0,0,0,20.18-2.4,34.12,34.12,0,0,0,15.73-9,22.33,22.33,0,0,0,6.61-16.45q0-12.73-11.41-18.86t-31.59-8.77a197.71,197.71,0,0,1-19.82-3.36A123.9,123.9,0,0,1,850,278.72a49,49,0,0,1-14.77-8.65A39.49,39.49,0,0,1,825.88,257a43.29,43.29,0,0,1-3.72-18.38,41.77,41.77,0,0,1,21.14-37.23,80.33,80.33,0,0,1,20.66-8.29A94.75,94.75,0,0,1,887,190.32q44.92,0,62.69,28.34Z"/><path class="cls-2" d="M509.2,195.13H479.89L404.47,363.27h31.22l10.48-25.41a74.83,74.83,0,0,1,4.82-9.78c9-9.15,24.79-10.46,51.08-10.46h-43.4V294.9c0-5.64,4.92-10.2,11-10.2H520c6.07,0,11,4.57,11,10.2v22.8c5.64,5.16,9.56,11.88,12.76,19.61l10.74,26h30.08Zm4.4,57H501.06v12.55a3,3,0,0,1-2.95,2.95h-7.88a3,3,0,0,1-2.95-2.95V252.08H474.73a3,3,0,0,1-2.95-2.95v-7.88a3,3,0,0,1,2.95-2.95h12.55V225.76a3,3,0,0,1,2.95-2.95h7.88a3,3,0,0,1,2.95,2.95V238.3H513.6a3,3,0,0,1,2.95,2.95v7.88A3,3,0,0,1,513.6,252.08Z"/><path class="cls-3" d="M31.53,412.42a7.25,7.25,0,0,0-3.12-2.47A11.4,11.4,0,0,0,24,409a9.43,9.43,0,0,0-5.11,1.25,3.83,3.83,0,0,0-2,3.39,3.06,3.06,0,0,0,1.9,2.93A19.71,19.71,0,0,0,24.32,418a39.34,39.34,0,0,1,4.63.92,17.55,17.55,0,0,1,3.8,1.55,7.06,7.06,0,0,1,2.86,2.8,8.55,8.55,0,0,1,1,4.22A8,8,0,0,1,34.7,433,10.28,10.28,0,0,1,30.07,436a19.64,19.64,0,0,1-6.14.9q-9.4,0-13.15-6.95l3.67-2.45q3,5,9.53,5a14.41,14.41,0,0,0,3.67-.44,6.22,6.22,0,0,0,2.86-1.64,4.06,4.06,0,0,0,1.2-3,3.65,3.65,0,0,0-2.08-3.43,17.07,17.07,0,0,0-5.75-1.6,36,36,0,0,1-3.61-.61,22.54,22.54,0,0,1-3.17-1,8.9,8.9,0,0,1-2.69-1.57,7.2,7.2,0,0,1-1.71-2.38,7.88,7.88,0,0,1-.68-3.34,7.6,7.6,0,0,1,3.85-6.77,14.61,14.61,0,0,1,3.76-1.51,17.25,17.25,0,0,1,4.2-.5q8.17,0,11.41,5.16Z"/><path class="cls-3" d="M50,436.23V405.64h4.85v30.59Z"/><path class="cls-3" d="M88.64,412.42a7.25,7.25,0,0,0-3.12-2.47,11.39,11.39,0,0,0-4.44-.94A9.43,9.43,0,0,0,76,410.25a3.83,3.83,0,0,0-2,3.39,3.06,3.06,0,0,0,1.9,2.93A19.72,19.72,0,0,0,81.43,418a39.32,39.32,0,0,1,4.63.92,17.57,17.57,0,0,1,3.8,1.55,7.06,7.06,0,0,1,2.86,2.8,8.56,8.56,0,0,1,1,4.22,8,8,0,0,1-1.9,5.46A10.28,10.28,0,0,1,87.18,436a19.65,19.65,0,0,1-6.14.9q-9.4,0-13.15-6.95l3.67-2.45q3,5,9.53,5a14.41,14.41,0,0,0,3.67-.44,6.21,6.21,0,0,0,2.86-1.64,4.06,4.06,0,0,0,1.2-3,3.65,3.65,0,0,0-2.08-3.43,17.06,17.06,0,0,0-5.75-1.6,36,36,0,0,1-3.61-.61,22.55,22.55,0,0,1-3.17-1,8.91,8.91,0,0,1-2.69-1.57,7.18,7.18,0,0,1-1.7-2.38,7.87,7.87,0,0,1-.68-3.34A7.6,7.6,0,0,1,73,406.78a14.61,14.61,0,0,1,3.76-1.51,17.24,17.24,0,0,1,4.2-.5q8.17,0,11.41,5.16Z"/><path class="cls-3" d="M114,410.06H104v-4.41h25v4.41H119v26.18H114Z"/><path class="cls-3" d="M164,436.23H141.42V405.64h22.46v4.76H146.32v8.26h16.87v4.54H146.32v8.22H164Z"/><path class="cls-3" d="M204.78,412.81l-10.4,14.47h-1l-10.27-14.47v23.47h-4.89V405.69h5.68L193.95,420,204,405.69h5.68v30.59h-4.89Z"/><path class="cls-3" d="M244,436.23V405.64h4.85v30.59Z"/><path class="cls-3" d="M285.49,427.41V405.64h4.89v30.59h-3.71l-17.35-21.59v21.59h-4.94V405.64h3.76Z"/><path class="cls-3" d="M305.94,436.23V405.69h21.63v4.76H310.83v9.31h15.91v4.54H310.83v11.93Z"/><path class="cls-3" d="M366.5,409.77a16.58,16.58,0,0,1,4.06,11.3,18,18,0,0,1-1,6,16.07,16.07,0,0,1-2.84,5,12.65,12.65,0,0,1-4.92,3.52,17.63,17.63,0,0,1-6.9,1.29,17.12,17.12,0,0,1-6.91-1.33A13.05,13.05,0,0,1,343.1,432a16.2,16.2,0,0,1-2.84-5,17.48,17.48,0,0,1-1-5.88,15.81,15.81,0,0,1,4.41-11.52A15.13,15.13,0,0,1,355,405.07Q362.44,405.12,366.5,409.77Zm-21.7,15.43a11.76,11.76,0,0,0,1.9,3.58,8.93,8.93,0,0,0,3.39,2.62,11.35,11.35,0,0,0,4.83,1q5.37,0,8.08-3.21a12,12,0,0,0,2.71-8,14,14,0,0,0-1.07-5.51,10,10,0,0,0-3.58-4.3,10.47,10.47,0,0,0-6.05-1.81,10.15,10.15,0,0,0-8,3.23,12.19,12.19,0,0,0-2.86,8.39A13.9,13.9,0,0,0,344.81,425.2Z"/><path class="cls-3" d="M410.64,436.23h-5.72l-9.31-10.58h-6.47v10.58h-4.89V405.6l7.12,0,7.12,0a10.54,10.54,0,0,1,7.93,2.95,9.78,9.78,0,0,1,2.86,7.06,10,10,0,0,1-2,6.27,9.16,9.16,0,0,1-6.27,3.26l9.13,10.18Zm-21.5-26.13v11.1h9.31a5.73,5.73,0,0,0,4.37-1.57,5.45,5.45,0,0,0,1.49-3.89,5.78,5.78,0,0,0-1.49-4,5.47,5.47,0,0,0-4.33-1.68Z"/><path class="cls-3" d="M450.23,412.81l-10.4,14.47h-1l-10.27-14.47v23.47h-4.89V405.69h5.68L439.39,420l10.05-14.33h5.68v30.59h-4.89Z"/><path class="cls-3" d="M491.87,429.81H475.3l-2.88,6.42h-5.2l13.72-30.59h5.33L500,436.23h-5.2Zm-8.26-19-6.47,14.55h12.94Z"/><path class="cls-3" d="M529.84,412.42a7.24,7.24,0,0,0-3.12-2.47,11.39,11.39,0,0,0-4.44-.94,9.43,9.43,0,0,0-5.11,1.25,3.83,3.83,0,0,0-2,3.39,3.06,3.06,0,0,0,1.9,2.93,19.71,19.71,0,0,0,5.53,1.44,39.3,39.3,0,0,1,4.63.92,17.56,17.56,0,0,1,3.8,1.55,7.07,7.07,0,0,1,2.86,2.8,8.56,8.56,0,0,1,1,4.22A8,8,0,0,1,533,433a10.28,10.28,0,0,1-4.63,3.08,19.64,19.64,0,0,1-6.14.9q-9.4,0-13.15-6.95l3.67-2.45q3,5,9.53,5a14.41,14.41,0,0,0,3.67-.44,6.22,6.22,0,0,0,2.86-1.64,4.07,4.07,0,0,0,1.2-3,3.65,3.65,0,0,0-2.08-3.43,17.07,17.07,0,0,0-5.75-1.6,36,36,0,0,1-3.61-.61,22.54,22.54,0,0,1-3.17-1,8.9,8.9,0,0,1-2.69-1.57A7.2,7.2,0,0,1,511,416.9a7.88,7.88,0,0,1-.68-3.34,7.6,7.6,0,0,1,3.85-6.77,14.61,14.61,0,0,1,3.76-1.51,17.25,17.25,0,0,1,4.2-.5q8.17,0,11.41,5.16Z"/><path class="cls-3" d="M548.28,436.23V405.64h4.85v30.59Z"/><path class="cls-3" d="M614,412.81l-10.4,14.47h-1l-10.27-14.47v23.47h-4.89V405.69h5.68L603.2,420l10.05-14.33h5.68v30.59H614Z"/><path class="cls-3" d="M655.68,429.81H639.12l-2.88,6.42H631l13.72-30.59h5.33l13.72,30.59h-5.2Zm-8.26-19L641,425.35h12.94Z"/><path class="cls-3" d="M697,427.41V405.64h4.89v30.59H698.2l-17.35-21.59v21.59h-4.94V405.64h3.76Z"/><path class="cls-3" d="M738.66,429.81H722.1l-2.88,6.42H714l13.72-30.59h5.33l13.72,30.59h-5.2Zm-8.26-19-6.47,14.55h12.94Z"/><path class="cls-3" d="M781.74,405.64v17.92a13.16,13.16,0,0,1-3.56,9.57,12.69,12.69,0,0,1-9.55,3.67,13.13,13.13,0,0,1-9.44-3.45q-3.63-3.45-3.63-9.53h4.81a8.49,8.49,0,0,0,2.14,6.21,8.18,8.18,0,0,0,6.12,2.19,7.76,7.76,0,0,0,6.05-2.38,9,9,0,0,0,2.16-6.27V410.19H767v-4.54Z"/><path class="cls-3" d="M819.45,436.23H796.86V405.64h22.46v4.76H801.76v8.26h16.87v4.54H801.76v8.22h17.7Z"/><path class="cls-3" d="M860.22,412.81l-10.4,14.47h-1L838.5,412.81v23.47h-4.89V405.69h5.68L849.39,420l10.05-14.33h5.68v30.59h-4.89Z"/><path class="cls-3" d="M903.26,436.23H880.67V405.64h22.46v4.76H885.56v8.26h16.87v4.54H885.56v8.22h17.7Z"/><path class="cls-3" d="M938.53,427.41V405.64h4.89v30.59h-3.71l-17.35-21.59v21.59h-4.94V405.64h3.76Z"/><path class="cls-2" d="M865.16,602.52c-101.95,0-191.51-53-242.63-133h-71c54,95.49,156.54,160,274.1,160a313.78,313.78,0,0,0,225.12-94.8A286.6,286.6,0,0,1,865.16,602.52Z"/><path class="cls-2" d="M621.46,161.68C672.39,80.76,762.49,27,865.16,27A286.6,286.6,0,0,1,1050.71,94.8,313.78,313.78,0,0,0,825.59,0C707.33,0,604.32,65.24,550.54,161.68Z"/><path class="cls-1" d="M865.16,60.83A253.44,253.44,0,0,0,666.44,156.7,225,225,0,0,1,827.55,89c124.65,0,225.7,101.05,225.7,225.7s-101.05,225.7-225.7,225.7A225,225,0,0,1,666.44,472.8a253.44,253.44,0,0,0,198.73,95.87c140.23,0,253.92-113.68,253.92-253.92S1005.4,60.83,865.16,60.83Z"/><path class="cls-3" d="M30.46,488.11H15.94l-2.53,5.63H8.85l12-26.82h4.67l12,26.82H33Zm-7.24-16.67L17.55,484.2H28.89Z"/><path class="cls-3" d="M68.74,467.07l-12.3,12.8,13.37,13.6v.27H64.44l-12-12.22v12.22H48.2V466.92h4.29v11.57l10.92-11.57h5.33Z"/><path class="cls-3" d="M100.42,470.54a14.53,14.53,0,0,1,3.56,9.9,15.75,15.75,0,0,1-.86,5.23,14.08,14.08,0,0,1-2.49,4.43,11.1,11.1,0,0,1-4.31,3.08,15.46,15.46,0,0,1-6.05,1.13,15,15,0,0,1-6.05-1.17A11.45,11.45,0,0,1,79.9,490a14.23,14.23,0,0,1-2.49-4.39,15.33,15.33,0,0,1-.86-5.15,13.86,13.86,0,0,1,3.87-10.1,13.26,13.26,0,0,1,9.92-4Q96.86,466.46,100.42,470.54Zm-19,13.53a10.36,10.36,0,0,0,1.67,3.14,7.84,7.84,0,0,0,3,2.3,10,10,0,0,0,4.23.86q4.71,0,7.09-2.82a10.53,10.53,0,0,0,2.38-7,12.28,12.28,0,0,0-.94-4.83,8.78,8.78,0,0,0-3.14-3.77,9.18,9.18,0,0,0-5.31-1.59,8.9,8.9,0,0,0-7,2.83,10.69,10.69,0,0,0-2.51,7.36A12.23,12.23,0,0,0,81.4,484.07Z"/><path class="cls-3" d="M139.31,473.21l-9.12,12.68h-.92l-9-12.68v20.57H116V467h5l8.85,12.57L138.62,467h5v26.82h-4.29Z"/><path class="cls-3" d="M179.46,470.54a14.54,14.54,0,0,1,3.56,9.9,15.78,15.78,0,0,1-.86,5.23,14.12,14.12,0,0,1-2.49,4.43,11.1,11.1,0,0,1-4.31,3.08,15.46,15.46,0,0,1-6.05,1.13,15,15,0,0,1-6.05-1.17,11.44,11.44,0,0,1-4.31-3.12,14.19,14.19,0,0,1-2.49-4.39,15.3,15.3,0,0,1-.86-5.15,13.86,13.86,0,0,1,3.87-10.1,13.26,13.26,0,0,1,9.92-4Q175.9,466.46,179.46,470.54Zm-19,13.53a10.32,10.32,0,0,0,1.67,3.14,7.84,7.84,0,0,0,3,2.3,10,10,0,0,0,4.23.86q4.71,0,7.09-2.82a10.53,10.53,0,0,0,2.38-7,12.28,12.28,0,0,0-.94-4.83,8.78,8.78,0,0,0-3.14-3.77,9.18,9.18,0,0,0-5.31-1.59,8.9,8.9,0,0,0-7,2.83,10.68,10.68,0,0,0-2.51,7.36A12.2,12.2,0,0,0,160.44,484.07Z"/><path class="cls-3" d="M205.17,466.92a15.06,15.06,0,0,1,5.92,1.11,11,11,0,0,1,4.21,3,14,14,0,0,1,2.43,4.2,14.65,14.65,0,0,1,.88,4.87,14.25,14.25,0,0,1-.73,5,13.79,13.79,0,0,1-2.39,4.35,11.1,11.1,0,0,1-4.27,3.12,15,15,0,0,1-6.05,1.17H195V466.92Zm-5.9,22.68h5.9q4.6,0,6.93-2.82a9.87,9.87,0,0,0,2.26-6.72,11.16,11.16,0,0,0-1-4.37,7.82,7.82,0,0,0-3-3.33,9.47,9.47,0,0,0-5.15-1.34h-5.9Z"/><path class="cls-3" d="M248.15,488.11H233.63l-2.53,5.63h-4.56l12-26.82h4.67l12,26.82h-4.56Zm-7.24-16.67-5.67,12.76h11.34Z"/><path class="cls-3" d="M281.45,472.86a6.35,6.35,0,0,0-2.74-2.17,10,10,0,0,0-3.89-.82,8.27,8.27,0,0,0-4.48,1.09,3.36,3.36,0,0,0-1.72,3,2.68,2.68,0,0,0,1.67,2.57,17.28,17.28,0,0,0,4.85,1.26,34.58,34.58,0,0,1,4.06.8,15.42,15.42,0,0,1,3.33,1.36,6.19,6.19,0,0,1,2.51,2.45,7.51,7.51,0,0,1,.86,3.7,7,7,0,0,1-1.67,4.79,9,9,0,0,1-4.06,2.7,17.23,17.23,0,0,1-5.38.79q-8.24,0-11.53-6.09l3.22-2.15q2.6,4.41,8.35,4.41a12.63,12.63,0,0,0,3.22-.38,5.44,5.44,0,0,0,2.51-1.44,3.56,3.56,0,0,0,1.05-2.62,3.2,3.2,0,0,0-1.82-3,15,15,0,0,0-5-1.4,31.62,31.62,0,0,1-3.16-.54,19.74,19.74,0,0,1-2.78-.88,7.81,7.81,0,0,1-2.36-1.38,6.29,6.29,0,0,1-1.49-2.09,6.91,6.91,0,0,1-.59-2.93,6.66,6.66,0,0,1,3.37-5.94,12.82,12.82,0,0,1,3.3-1.32,15.1,15.1,0,0,1,3.68-.44q7.16,0,10,4.52Z"/><path class="cls-3" d="M297.61,493.74V466.92h4.25v26.82Z"/><path class="cls-3" d="M336.23,485.5v8.24h-4.29V466.92l6.19,0,6.23,0a11,11,0,0,1,3.79.63,8,8,0,0,1,2.83,1.71,10.67,10.67,0,0,1,1.9,2.47,7.67,7.67,0,0,1,1,2.93,13.8,13.8,0,0,1,0,3.08,7.89,7.89,0,0,1-.94,3,10,10,0,0,1-1.9,2.47,8.39,8.39,0,0,1-2.85,1.72,10.65,10.65,0,0,1-3.79.65Zm0-3.95h8.12a5.37,5.37,0,0,0,2.93-.79,4.63,4.63,0,0,0,1.8-2,6.3,6.3,0,0,0,0-5.17,4.64,4.64,0,0,0-1.8-2,5.38,5.38,0,0,0-2.93-.79h-8.12Z"/><path class="cls-3" d="M382,488.11H367.46l-2.53,5.63h-4.56l12-26.82h4.67l12,26.82h-4.56Zm-7.24-16.67-5.67,12.76h11.34Z"/><path class="cls-3" d="M415.27,472.86a6.35,6.35,0,0,0-2.74-2.17,10,10,0,0,0-3.89-.82,8.26,8.26,0,0,0-4.48,1.09,3.36,3.36,0,0,0-1.72,3,2.68,2.68,0,0,0,1.67,2.57,17.29,17.29,0,0,0,4.85,1.26,34.54,34.54,0,0,1,4.06.8,15.38,15.38,0,0,1,3.33,1.36,6.18,6.18,0,0,1,2.51,2.45,7.5,7.5,0,0,1,.86,3.7,7,7,0,0,1-1.67,4.79,9,9,0,0,1-4.06,2.7,17.24,17.24,0,0,1-5.38.79q-8.24,0-11.53-6.09l3.22-2.15q2.61,4.41,8.35,4.41a12.64,12.64,0,0,0,3.22-.38,5.44,5.44,0,0,0,2.51-1.44,3.56,3.56,0,0,0,1.05-2.62,3.2,3.2,0,0,0-1.82-3,15,15,0,0,0-5-1.4,31.59,31.59,0,0,1-3.16-.54,19.73,19.73,0,0,1-2.78-.88,7.8,7.8,0,0,1-2.36-1.38,6.3,6.3,0,0,1-1.5-2.09,6.91,6.91,0,0,1-.59-2.93,6.66,6.66,0,0,1,3.37-5.94,12.81,12.81,0,0,1,3.29-1.32,15.1,15.1,0,0,1,3.68-.44q7.16,0,10,4.52Z"/><path class="cls-3" d="M431.44,493.74V466.92h4.25v26.82Z"/><path class="cls-3" d="M469.14,493.74H449.33V466.92H469v4.18h-15.4v7.24h14.79v4H453.62v7.2h15.52Z"/><path class="cls-3" d="M500.06,486V466.92h4.29v26.82h-3.26l-15.21-18.93v18.93h-4.33V466.92h3.3Z"/></g></g></svg>